<svg width="32" height="21" fill="none" xmlns="http://www.w3.org/2000/svg"><path d="M16 15.978c7.389 0 7.389-11.196 0-11.196-7.305 0-7.62 11.196 0 11.196Zm0-8.957c4.478 0 4.478 6.718 0 6.718S11.522 7.02 16 7.02Z" fill="#6C23E2"/><path d="M16 20.456c5.54 0 10.846-2.944 14.554-8.076a3.407 3.407 0 0 0 0-4C26.846 3.249 21.54.305 16 .305c-5.54 0-10.846 2.944-14.554 8.077a3.407 3.407 0 0 0 0 3.998C5.154 17.512 10.46 20.456 16 20.456Zm12.743-9.389c-3.333 4.61-7.859 7.15-12.743 7.15s-9.41-2.54-12.743-7.15a1.172 1.172 0 0 1 0-1.376C6.59 5.082 11.116 2.543 16 2.543s9.41 2.54 12.743 7.15a1.172 1.172 0 0 1 0 1.374Z" fill="#6C23E2"/></svg>