<svg width="51" height="52" fill="none" xmlns="http://www.w3.org/2000/svg"><g clip-path="url('#clip0_628_26')" fill="#fff"><path d="M48.65 49.388h-2.186V17.666a2.68 2.68 0 0 0-2.677-2.678h-4.884a2.68 2.68 0 0 0-2.677 2.678v31.722h-5.548v-17.35a2.68 2.68 0 0 0-2.677-2.677h-4.884a2.68 2.68 0 0 0-2.677 2.677v17.35h-5.548v-8.985a2.68 2.68 0 0 0-2.678-2.678H7.331a2.68 2.68 0 0 0-2.678 2.678v8.985H2.351a.996.996 0 1 0 0 1.992h46.298a.996.996 0 1 0 0-1.992Zm-35.75 0H6.646v-8.985c0-.378.307-.686.685-.686h4.883c.378 0 .686.308.686.686v8.985Zm15.786 0h-6.254v-17.35c0-.378.307-.685.685-.685H28c.378 0 .686.307.686.685v17.35Zm15.786 0h-6.254V17.666c0-.378.307-.686.685-.686h4.884c.378 0 .685.308.685.686v31.722ZM46.462 1.427A.993.993 0 0 0 45.417.383L45.369.38h-6.027a.996.996 0 0 0 0 1.992h3.721l-9.847 9.847-3.713-3.713a.996.996 0 0 0-1.409 0L10.187 26.413a.996.996 0 0 0 1.41 1.408L28.798 10.62l3.713 3.713a.996.996 0 0 0 1.409 0L44.472 3.781v3.368a.996.996 0 1 0 1.992 0V1.476l-.002-.048ZM7.534 31.589a.996.996 0 1 0 0-1.993.996.996 0 0 0 0 1.993Z"/></g><defs><clipPath id="clip0_628_26"><path fill="#fff" transform="translate(0 .38)" d="M0 0h51v51H0z"/></clipPath></defs></svg>