<svg width="51" height="52" fill="none" xmlns="http://www.w3.org/2000/svg"><g clip-path="url('#clip0_628_48')" fill="#fff"><path d="M49.561 17.266c-1.108-.573-2.777-.394-3.825 1.356l-.01.015-3.87 6.728a2.678 2.678 0 0 0-3.33.738c-.277.355-1.193 1.574-2.161 2.864-.532.707-1.063 1.414-1.473 1.957a.996.996 0 1 0 1.59 1.2c.411-.544.943-1.253 1.475-1.96.922-1.227 1.874-2.495 2.14-2.837a.689.689 0 0 1 .953-.124c.215.168.204.577-.034 1.216-.845 2.277-1.895 4.552-2.882 6.242a.996.996 0 0 0 1.72 1.004c1.042-1.785 2.146-4.173 3.03-6.552.306-.826.362-1.487.272-2.014l4.293-7.46c.347-.576.805-.807 1.197-.604.269.139.497.497.255 1.048-.29.642-.916 2.23-1.707 4.24-1.047 2.66-2.35 5.972-3.453 8.548-1.341 3.139-1.858 3.897-4.254 6.24l-3.818 3.734a.997.997 0 0 0-.27.95l1.33 5.4.005.02a.174.174 0 0 1-.05.169H28.9c-.74 0-.898-.211-1.063-.659-1.954-5.291.061-8.328 2.035-10.383a.996.996 0 1 0-1.436-1.38c-1.455 1.514-2.417 3.06-2.934 4.715a10.387 10.387 0 0 0-.86-1.974c-1.353-2.41-3.553-4.176-5.322-5.595-1.028-.825-1.999-1.604-2.546-2.307-.266-.341-1.218-1.609-2.138-2.834a380.962 380.962 0 0 0-2.162-2.864 2.678 2.678 0 0 0-3.33-.738l-3.871-6.728-.009-.015c-1.048-1.75-2.717-1.93-3.825-1.356-1.117.578-1.874 2.009-1.161 3.625l.004.009c.192.423.578 1.388.893 2.181a.996.996 0 0 0 1.851-.734c-.484-1.22-.762-1.898-.927-2.264-.242-.551-.014-.909.255-1.048.393-.203.85.029 1.198.604l4.292 7.46c-.09.527-.034 1.188.273 2.014.883 2.379 1.987 4.767 3.028 6.552a.996.996 0 0 0 1.72-1.004c-.985-1.69-2.036-3.965-2.881-6.242-.238-.64-.25-1.048-.034-1.216a.69.69 0 0 1 .953.124c.266.341 1.219 1.61 2.14 2.836.968 1.29 1.883 2.507 2.16 2.862.69.886 1.75 1.736 2.87 2.636 3.585 2.877 7.648 6.137 5.09 13.064-.165.448-.324.659-1.063.659h-7.785a.174.174 0 0 1-.049-.17.631.631 0 0 0 .005-.02l1.33-5.399a.996.996 0 0 0-.27-.95l-3.818-3.734C9.117 36.768 8.6 36.01 7.258 32.87c-.275-.645-.585-1.387-.92-2.205a.996.996 0 1 0-1.844.755c.344.84.65 1.57.933 2.233 1.447 3.385 2.105 4.35 4.693 6.88l3.411 3.337-1.192 4.839a2.179 2.179 0 0 0 .378 1.867c.39.507.967.798 1.585.798H22.1c1.485 0 2.444-.64 2.932-1.96.184-.499.34-.989.469-1.47.128.483.284.974.467 1.47.487 1.32 1.446 1.96 2.932 1.96h7.798c.618 0 1.196-.29 1.585-.798a2.179 2.179 0 0 0 .378-1.867l-1.192-4.839 3.41-3.336c2.589-2.531 3.247-3.496 4.694-6.881 1.113-2.603 2.422-5.929 3.474-8.601.753-1.91 1.402-3.56 1.67-4.153l.005-.01c.713-1.615-.044-3.046-1.16-3.624Z"/><path d="M4.742 26.884a.996.996 0 1 0-1.993 0 .996.996 0 0 0 1.993 0ZM32.528 33.708a.996.996 0 1 0 0 1.99.996.996 0 0 0 .001-1.99ZM9.566 16.888h9.08a7.024 7.024 0 0 0-.117 1.28v1.708c0 .55.445.996.995.996h11.951c.55 0 .996-.446.996-.996v-1.707c0-.436-.04-.864-.118-1.28h9.082c.55 0 .995-.447.995-.997v-1.707c0-2.32-1.134-4.44-3.015-5.735.29-.588.455-1.249.455-1.948V4.795a4.415 4.415 0 0 0-4.41-4.41 4.415 4.415 0 0 0-4.411 4.41v1.707c0 .7.164 1.362.456 1.95a7.036 7.036 0 0 0-1.595 1.53V8.778a4.415 4.415 0 0 0-4.41-4.41 4.415 4.415 0 0 0-4.41 4.41v1.203a7.038 7.038 0 0 0-1.595-1.53c.292-.588.456-1.25.456-1.95V4.795a4.415 4.415 0 0 0-4.41-4.41 4.415 4.415 0 0 0-4.41 4.41v1.707c0 .7.163 1.36.454 1.948a6.93 6.93 0 0 0-3.016 5.735v1.707c0 .55.446.996.997.996Zm20.913 1.992H20.52v-.711c0-1.685.886-3.274 2.296-4.187a4.387 4.387 0 0 0 2.684.915c1.01 0 1.941-.342 2.685-.916.216.138.417.291.606.457a.985.985 0 0 0 .1.089 4.952 4.952 0 0 1 1.588 3.642v.711Zm9.96-4.695v.711h-8.781a6.93 6.93 0 0 0-1.108-1.53A5.021 5.021 0 0 1 32.776 10a4.387 4.387 0 0 0 2.683.913c1.01 0 1.941-.342 2.685-.915a4.955 4.955 0 0 1 2.295 4.187Zm-7.399-9.39a2.421 2.421 0 0 1 2.419-2.419 2.421 2.421 0 0 1 2.419 2.42v1.706a2.421 2.421 0 0 1-2.419 2.42 2.421 2.421 0 0 1-2.419-2.42V4.795ZM23.081 8.78A2.421 2.421 0 0 1 25.5 6.36a2.421 2.421 0 0 1 2.419 2.419v1.707a2.421 2.421 0 0 1-2.419 2.419 2.421 2.421 0 0 1-2.419-2.419V8.78Zm-9.959-3.984a2.421 2.421 0 0 1 2.419-2.419 2.421 2.421 0 0 1 2.419 2.42v1.706a2.421 2.421 0 0 1-2.419 2.42 2.421 2.421 0 0 1-2.419-2.42V4.795Zm-2.56 9.39c0-1.713.866-3.272 2.294-4.187a4.387 4.387 0 0 0 2.685.915A4.388 4.388 0 0 0 18.224 10a5.022 5.022 0 0 1 2.226 3.365c-.44.46-.812.975-1.108 1.531h-8.78v-.71Z"/></g><defs><clipPath id="clip0_628_48"><path fill="#fff" transform="translate(0 .38)" d="M0 0h51v51H0z"/></clipPath></defs></svg>