<svg width="28" height="23" fill="none" xmlns="http://www.w3.org/2000/svg"><path d="M24.795 10.634a2.656 2.656 0 0 0-2.336-2.633V1.2c0-.416-.27-.77-.672-.878a.9.9 0 0 0-1.022.421c-1.437 2.472-3.7 4.162-6.726 5.022-2.289.651-4.178.557-4.196.556a.526.526 0 0 0-.082.002H4.92a4.414 4.414 0 0 0-4.408 4.409 4.414 4.414 0 0 0 3.99 4.388l1.46 6.002c.193.795.899 1.35 1.717 1.35h1.013c.545 0 1.052-.246 1.39-.675.336-.43.456-.98.327-1.51L9.158 15.14h.602a.533.533 0 0 0 .083.002c.018 0 1.907-.095 4.196.555 3.026.86 5.29 2.55 6.726 5.023a.897.897 0 0 0 1.022.42.899.899 0 0 0 .672-.877v-6.802a2.656 2.656 0 0 0 2.336-2.633v-.194ZM9.22 19.85l.166.685a.71.71 0 0 1-.132.61.71.71 0 0 1-.561.272H7.68a.712.712 0 0 1-.694-.545L5.592 15.14h2.482l.372 1.53h-.252a.527.527 0 0 0 0 1.054h.508l.261 1.073h-.165a.527.527 0 0 0 0 1.053h.422Zm.066-8H6.012a.527.527 0 1 0 0 1.054h3.274v1.182h-.77l-.028-.001H4.907a3.359 3.359 0 0 1-3.34-3.354A3.359 3.359 0 0 1 4.92 7.376h4.365v4.474Zm12.12-3.342V19.748c-1.58-2.455-4.028-4.205-7.115-5.074a15.877 15.877 0 0 0-3.95-.59V7.378a15.88 15.88 0 0 0 3.95-.59c3.087-.87 5.536-2.619 7.115-5.074v6.794Zm2.335 2.32c0 .773-.551 1.42-1.282 1.567V9.067c.73.147 1.282.794 1.282 1.567v.194ZM24.953 7.657a.525.525 0 0 0 .354-.137l1.52-1.384a.527.527 0 0 0-.71-.78l-1.52 1.385a.527.527 0 0 0 .356.916ZM25.307 13.942a.527.527 0 0 0-.71.78l1.52 1.383a.525.525 0 0 0 .744-.035.527.527 0 0 0-.034-.744l-1.52-1.384ZM26.96 10.204h-1.166a.527.527 0 1 0 0 1.054h1.166a.527.527 0 1 0 0-1.054Z" fill="#6C23E2" stroke="#6C23E2" stroke-width=".2"/><path d="M4.328 12.176a.52.52 0 0 0-.383-.315.521.521 0 0 0-.541.224.52.52 0 0 0-.079.395.555.555 0 0 0 .079.19.502.502 0 0 0 .236.194.534.534 0 0 0 .403 0 .533.533 0 0 0 .315-.384.528.528 0 0 0-.03-.304Z" fill="#6C23E2" stroke="#6C23E2" stroke-width=".2"/></svg>