<svg width="51" height="52" fill="none" xmlns="http://www.w3.org/2000/svg"><path d="M11.256 40.821a.997.997 0 0 0-.996.977v.02a.997.997 0 0 0 1.992 0v-.02a.997.997 0 0 0-.996-.977Z" fill="#fff"/><path d="M43.031 27.29V7.95c0-3.235-5.8-4.98-11.256-4.98S20.52 4.715 20.52 7.95v9.036c-2.166-1.353-5.784-2.063-9.264-2.063C5.799 14.923 0 16.669 0 19.903V43.81c0 3.235 5.8 4.98 11.256 4.98 4.089 0 8.37-.98 10.26-2.833 1.889 1.853 6.17 2.833 10.26 2.833 1.767 0 3.646-.174 5.092-.47 1.027.311 2.094.47 3.175.47C46.084 48.79 51 43.875 51 37.833c0-4.915-3.306-9.223-7.969-10.542ZM41.04 13.928c0 .44-.636 1.2-2.428 1.887-1.821.7-4.313 1.101-6.836 1.101-2.522 0-5.014-.401-6.835-1.1-1.793-.689-2.428-1.448-2.428-1.888v-3.06c2.165 1.354 5.784 2.064 9.263 2.064 3.48 0 7.098-.71 9.264-2.063v3.059Zm-18.527 2.917c2.165 1.353 5.784 2.063 9.263 2.063 3.48 0 7.098-.71 9.264-2.063v3.06c0 .44-.636 1.199-2.428 1.887-1.821.7-4.313 1.1-6.836 1.1-2.522 0-5.014-.4-6.835-1.1-1.793-.688-2.428-1.447-2.428-1.888v-3.059ZM20.52 25.88c0 .44-.636 1.2-2.428 1.887-1.822.7-4.313 1.101-6.836 1.101-2.523 0-5.014-.4-6.836-1.1-1.792-.689-2.428-1.448-2.428-1.888v-3.06c2.166 1.354 5.784 2.064 9.264 2.064 3.48 0 7.098-.71 9.264-2.063v3.059ZM1.992 28.798c2.166 1.352 5.784 2.063 9.264 2.063 3.48 0 7.098-.71 9.264-2.064v3.06c0 .44-.636 1.199-2.428 1.887-1.822.7-4.313 1.1-6.836 1.1-2.523 0-5.014-.4-6.836-1.1-1.792-.688-2.428-1.447-2.428-1.887v-3.06Zm20.52 5.895c1.656 1.023 4.138 1.689 6.635 1.977a11.05 11.05 0 0 0 .311 4.007c-1.77-.196-3.44-.583-4.73-1.11-1.53-.624-2.216-1.321-2.216-1.734v-3.14Zm7.028.016c-1.879-.203-3.661-.63-4.986-1.2-1.41-.605-2.042-1.266-2.042-1.652v-3.113c.499.308 1.115.607 1.875.888 1.992.736 4.596 1.176 7.21 1.224a10.902 10.902 0 0 0-2.057 3.853Zm4.302-5.907c-.58.043-1.172.066-1.768.066-2.545 0-5.095-.403-6.997-1.105-1.772-.655-2.565-1.417-2.565-1.883v-3.06c2.165 1.354 5.784 2.064 9.263 2.064 3.48 0 7.098-.71 9.264-2.063v3.059c0 .304-.237.654-.672 1.001a10.86 10.86 0 0 0-6.525 1.92ZM24.94 6.062c1.821-.699 4.313-1.1 6.835-1.1 2.523 0 5.015.401 6.836 1.1 1.792.69 2.428 1.448 2.428 1.888 0 .44-.636 1.2-2.428 1.888-1.821.7-4.313 1.1-6.836 1.1-2.522 0-5.014-.4-6.835-1.1-1.793-.688-2.428-1.447-2.428-1.888 0-.44.636-1.199 2.428-1.887ZM4.42 18.017c1.822-.7 4.313-1.1 6.836-1.1 2.523 0 5.014.4 6.836 1.1 1.792.688 2.428 1.447 2.428 1.887 0 .44-.636 1.2-2.428 1.888-1.822.7-4.313 1.1-6.836 1.1-2.523 0-5.014-.4-6.836-1.1-1.792-.688-2.428-1.447-2.428-1.888 0-.44.636-1.199 2.428-1.887Zm13.672 27.681c-1.822.7-4.313 1.101-6.836 1.101-2.523 0-5.014-.401-6.836-1.1-1.792-.69-2.428-1.448-2.428-1.888v-3.096c1.743 1.08 4.143 1.586 5.123 1.756a.997.997 0 0 0 .342-1.963c-3.58-.622-5.348-1.896-5.458-2.594l-.001-.008-.004-.036-.001-.009V34.774c2.165 1.353 5.783 2.063 9.263 2.063 3.48 0 7.098-.71 9.264-2.063v3.06l-.001.026-.001.01v.003l-.003.027v.006c-.113.705-1.88 1.979-5.46 2.601a.996.996 0 0 0 .342 1.963c.98-.17 3.38-.675 5.123-1.758v3.098c0 .44-.636 1.199-2.428 1.887Zm6.848 0c-1.793-.688-2.428-1.447-2.428-1.887v-3.137c1.855 1.15 4.771 1.867 7.737 2.076a10.98 10.98 0 0 0 3.398 3.982c-.624.043-1.259.067-1.872.067-2.522 0-5.014-.401-6.835-1.1Zm15.103 1.101c-4.936 0-8.965-3.993-8.965-8.965 0-4.95 4.01-8.965 8.965-8.965 5.023 0 8.965 4.104 8.965 8.965 0 4.943-4.022 8.965-8.965 8.965Z" fill="#fff"/><path d="M40.043 36.837a.997.997 0 0 1 0-1.992c.266 0 .516.103.704.292a.997.997 0 0 0 1.409-1.409c-.32-.32-.702-.559-1.117-.706v-1.165a.996.996 0 1 0-1.992 0v1.167a2.993 2.993 0 0 0-1.992 2.817 2.991 2.991 0 0 0 2.988 2.988.997.997 0 0 1 0 1.992.987.987 0 0 1-.704-.292.997.997 0 0 0-1.409 1.41c.32.32.702.558 1.117.705v1.166a.996.996 0 1 0 1.992 0v-1.168a2.993 2.993 0 0 0 1.992-2.817 2.992 2.992 0 0 0-2.988-2.988Z" fill="#fff"/></svg>