<svg width="28" height="26" fill="none" xmlns="http://www.w3.org/2000/svg"><g id="Group" fill="#6C23E2"><path id="Vector" d="M14 17.669a.536.536 0 1 0 0-1.071.536.536 0 0 0 0 1.071Z"/><path id="Vector_2" d="M25.568.836H2.432A2.15 2.15 0 0 0 .285 2.983v14.988a2.15 2.15 0 0 0 2.147 2.147h8.617l-.6 1.848a1.613 1.613 0 0 0-1.342 1.587c0 .888.723 1.61 1.61 1.61h6.565c.888 0 1.61-.721 1.61-1.61 0-.796-.58-1.458-1.34-1.587l-.601-1.848h8.617a2.15 2.15 0 0 0 2.147-2.147V2.983A2.15 2.15 0 0 0 25.568.836Zm-7.749 22.717c0 .296-.24.537-.537.537h-6.564a.537.537 0 0 1 0-1.073h6.564c.296 0 .537.24.537.537Zm-1.404-1.61h-4.83l.593-1.825h3.644l.593 1.825Zm10.226-3.972c0 .592-.481 1.073-1.073 1.073H2.432a1.075 1.075 0 0 1-1.073-1.073V2.983c0-.592.481-1.073 1.073-1.073h23.136c.592 0 1.073.481 1.073 1.073v14.988Z"/><path id="Vector_3" d="M23.925 3.284H4.075c-.74 0-1.342.602-1.342 1.342v11.702c0 .74.602 1.342 1.342 1.342h7.519a.537.537 0 0 0 0-1.074H4.075a.269.269 0 0 1-.268-.268V4.626c0-.148.12-.268.268-.268h19.85c.148 0 .268.12.268.268v11.702c0 .148-.12.269-.268.269h-7.519a.537.537 0 0 0 0 1.073h7.519c.74 0 1.342-.602 1.342-1.342V4.626c0-.74-.602-1.342-1.342-1.342Z"/><path id="Vector_4" d="M10.89 8.541v-1.78c0-.74-.602-1.342-1.342-1.342H6.661c-.74 0-1.342.602-1.342 1.342v1.78c0 .74.602 1.342 1.342 1.342h2.887c.74 0 1.342-.602 1.342-1.342Zm-1.073 0c0 .148-.12.269-.269.269H6.661a.269.269 0 0 1-.268-.269v-1.78c0-.148.12-.268.268-.268h2.887c.148 0 .269.12.269.268v1.78Z"/><path id="Vector_5" d="M22.34 10.985a.537.537 0 0 0-.379-.38l-3.94-1.056a.536.536 0 0 0-.658.658l1.056 3.94a.537.537 0 0 0 .898.241l.304-.303 1.432 1.432a.537.537 0 0 0 .76 0l1.518-1.518c.21-.21.21-.55 0-.76l-1.433-1.432.304-.304a.537.537 0 0 0 .139-.518Zm-.148 2.634-.76.76L20 12.945a.535.535 0 0 0-.759 0l-.026.026-.574-2.145 2.144.575-.026.026c-.21.21-.21.549 0 .759l1.433 1.432Z"/><path id="Vector_6" d="M12.185 7.114h3.311a.537.537 0 0 0 0-1.073h-3.31a.537.537 0 0 0 0 1.073Z"/><path id="Vector_7" d="M12.185 9.261h3.311a.537.537 0 0 0 0-1.073h-3.31a.537.537 0 0 0 0 1.073Z"/><path id="Vector_8" d="M12.185 12.335h3.311a.537.537 0 0 0 0-1.073h-3.31a.537.537 0 0 0 0 1.073Z"/><path id="Vector_9" d="M16.033 13.946a.537.537 0 0 0-.537-.537h-3.31a.537.537 0 0 0 0 1.074h3.31c.297 0 .537-.24.537-.537Z"/><path id="Vector_10" d="M5.873 12.925a2.235 2.235 0 0 0 2.232 2.232 2.235 2.235 0 0 0 2.232-2.232 2.235 2.235 0 0 0-2.232-2.232 2.235 2.235 0 0 0-2.232 2.232Zm3.39 0a1.16 1.16 0 0 1-1.158 1.159 1.16 1.16 0 0 1-1.159-1.159 1.16 1.16 0 0 1 2.317 0Z"/></g></svg>