<svg width="28" height="28" fill="none" xmlns="http://www.w3.org/2000/svg"><g id="ranking 1"><g id="Group" fill="#6C23E2"><path id="Vector" d="M25.576 20.174h-6.945v-3.859c0-.463-.31-.772-.772-.772H10.14c-.463 0-.772.31-.772.772v2.856H2.424c-.464 0-.772.309-.772.772v5.633c0 .463.308.772.772.772H25.576c.463 0 .772-.308.772-.771v-4.631c0-.463-.308-.772-.771-.772Zm-22.38.54h6.173v4.09H3.195v-4.09Zm7.717-.771v-2.856h6.174v7.718h-6.174v-4.862Zm13.892 4.862H18.63v-3.087h6.174v3.087Z"/><path id="Vector_2" d="M20.406 6.282c-.078-.308-.309-.463-.618-.54l-3.55-.54-1.543-3.164c-.232-.54-1.158-.54-1.39 0l-1.543 3.164-3.55.54c-.309.077-.54.309-.618.54-.077.309 0 .618.232.772l2.547 2.47-.618 3.55a.734.734 0 0 0 .309.772c.232.154.54.231.849.077l3.164-1.62 3.164 1.62c.232.154.54.077.85-.077a.734.734 0 0 0 .308-.772l-.617-3.55 2.47-2.47c.154-.154.23-.463.154-.772Zm-4.09 2.47c-.155.154-.232.463-.232.695l.386 2.392-2.161-1.158c-.077-.077-.232-.077-.386-.077-.155 0-.232 0-.386.077l-2.161 1.08.386-2.392c.077-.231-.077-.54-.232-.694l-1.543-1.62 2.392-.31c.232 0 .463-.231.618-.386L14 4.121l1.08 2.161c.078.232.31.386.618.386l2.315.386-1.698 1.698Z"/></g></g></svg>