<svg width="24" height="25" fill="none" xmlns="http://www.w3.org/2000/svg"><g clip-path="url('#clip0_601_6858')" fill="#6C23E2" stroke="#6C23E2" stroke-width=".2"><path d="M21.862 4.524A39.921 39.921 0 0 1 12.257.45a.505.505 0 0 0-.514 0 38.83 38.83 0 0 1-9.605 4.074.505.505 0 0 0-.372.487v5.159c0 5.312 2.45 8.828 4.507 10.842C8.486 23.181 11.064 24.38 12 24.38c.936 0 3.514-1.2 5.727-3.368 2.056-2.014 4.507-5.53 4.507-10.842V5.01a.505.505 0 0 0-.372-.487Zm-.638 5.646c0 4.96-2.286 8.242-4.203 10.12-2.177 2.133-4.504 3.08-5.02 3.08-.518 0-2.845-.947-5.022-3.08-1.917-1.878-4.203-5.16-4.203-10.12V5.394A39.76 39.76 0 0 0 12 1.47a41.02 41.02 0 0 0 9.224 3.924v4.776Z"/><path d="M7.525 5.338a.505.505 0 0 0-.655-.285c-.901.356-1.827.683-2.75.973a.505.505 0 0 0-.355.481v1.95a.505.505 0 0 0 1.01 0v-1.58a42.093 42.093 0 0 0 2.466-.884.505.505 0 0 0 .284-.655ZM8.484 5.434a.505.505 0 0 0 .203-.043l.009-.004a.504.504 0 1 0-.408-.923l-.008.003a.504.504 0 0 0 .204.967ZM18.015 16.659a.505.505 0 0 0-.699.146 12.29 12.29 0 0 1-1.45 1.813c-.45.465-.937.898-1.449 1.288a.505.505 0 0 0 .613.803c.551-.42 1.077-.888 1.561-1.39a13.286 13.286 0 0 0 1.57-1.961.505.505 0 0 0-.146-.7ZM13.245 20.698l-.03.017a.505.505 0 1 0 .507.873l.033-.02a.505.505 0 0 0-.51-.87ZM8.559 11.35a1.63 1.63 0 0 0-1.16-.481c-.44 0-.852.17-1.162.48-.64.64-.64 1.682 0 2.322l2.981 2.981c.31.31.723.481 1.161.481.439 0 .85-.17 1.161-.48l6.223-6.224a1.644 1.644 0 0 0-1.16-2.802c-.44 0-.852.17-1.162.48L10.38 13.17l-1.82-1.82Zm7.596-2.529a.628.628 0 0 1 .447-.184.633.633 0 0 1 .447 1.079l-6.223 6.222a.628.628 0 0 1-.894 0l-2.98-2.98a.633.633 0 0 1 .893-.894l2.177 2.177a.505.505 0 0 0 .714 0l5.42-5.42Z"/></g><defs><clipPath id="clip0_601_6858"><path fill="#fff" transform="translate(0 .38)" d="M0 0h24v24H0z"/></clipPath></defs></svg>