<svg width="22" height="23" fill="none" xmlns="http://www.w3.org/2000/svg"><g clip-path="url('#clip0_601_6910')" fill="#6C23E2" stroke="#6C23E2" stroke-width=".4"><path d="M21.498 10.467a1.65 1.65 0 0 0 .42-1.701 1.65 1.65 0 0 0-1.34-1.13l-5.174-.75a.8.8 0 0 1-.603-.438l-2.315-4.687a1.65 1.65 0 0 0-1.488-.924 1.65 1.65 0 0 0-1.489.925L7.197 6.45a.8.8 0 0 1-.602.439l-5.173.753a1.65 1.65 0 0 0-1.34 1.13 1.65 1.65 0 0 0 .42 1.701l.661.644a.43.43 0 0 0 .6-.616l-.66-.643A.785.785 0 0 1 .9 9.037a.786.786 0 0 1 .646-.545l5.172-.753a1.66 1.66 0 0 0 1.25-.909l2.312-4.688a.785.785 0 0 1 .718-.446c.312 0 .58.167.718.446l2.315 4.687c.242.49.709.83 1.25.907l5.173.75c.308.045.55.25.646.545a.785.785 0 0 1-.202.821l-3.742 3.65a1.66 1.66 0 0 0-.477 1.47l.885 5.15a.786.786 0 0 1-.319.784.786.786 0 0 1-.843.061l-4.627-2.431a1.66 1.66 0 0 0-1.545 0L5.604 20.97a.786.786 0 0 1-.843-.06.785.785 0 0 1-.319-.784l.882-5.152a1.66 1.66 0 0 0-.477-1.469l-.532-.517a.43.43 0 1 0-.6.615l.532.518a.8.8 0 0 1 .23.708l-.882 5.152a1.65 1.65 0 0 0 .66 1.624 1.654 1.654 0 0 0 1.749.126l4.626-2.434a.8.8 0 0 1 .745 0l4.628 2.431a1.65 1.65 0 0 0 1.748-.127 1.65 1.65 0 0 0 .66-1.623l-.886-5.152a.8.8 0 0 1 .23-.709l3.743-3.65Z"/><path d="M3.054 11.759a.433.433 0 0 0-.608 0 .432.432 0 0 0 0 .607.432.432 0 0 0 .608 0 .432.432 0 0 0 0-.607Z"/></g><defs><clipPath id="clip0_601_6910"><path fill="#fff" transform="translate(0 .38)" d="M0 0h22v22H0z"/></clipPath></defs></svg>